<?xml version="1.0" standalone="no"?>
<!DOCTYPE svg PUBLIC "-//W3C//DTD SVG 20010904//EN"
 "http://www.w3.org/TR/2001/REC-SVG-20010904/DTD/svg10.dtd">
<svg version="1.0" xmlns="http://www.w3.org/2000/svg"
 width="260.000000pt" height="260.000000pt" viewBox="0 0 260.000000 260.000000"
 preserveAspectRatio="xMidYMid meet">
<metadata>
Created by potrace 1.14, written by Peter Selinger 2001-2017
</metadata>
<g transform="translate(0.000000,260.000000) scale(0.100000,-0.100000)"
fill="#000000" stroke="none">
<path d="M485 1980 c-3 -6 1 -7 9 -4 18 7 21 14 7 14 -6 0 -13 -4 -16 -10z"/>
<path d="M575 1971 c-4 -13 -12 -18 -22 -14 -11 4 -14 2 -9 -5 5 -8 2 -10 -8
-6 -9 3 -13 10 -10 15 3 5 0 9 -5 9 -6 0 -11 -5 -11 -10 0 -13 -32 -9 -41 4
-4 5 -10 -1 -14 -13 -3 -12 -10 -19 -15 -16 -5 3 -12 0 -16 -6 -4 -8 -3 -9 4
-5 7 4 12 1 12 -9 0 -9 -4 -13 -10 -10 -14 9 -12 -8 3 -24 10 -11 10 -13 0 -7
-7 4 -13 2 -13 -4 0 -6 -5 -8 -11 -4 -8 4 -8 0 0 -15 10 -18 9 -21 -6 -22 -11
0 -13 -3 -5 -6 10 -4 10 -8 1 -19 -9 -11 -8 -14 2 -14 10 -1 9 -5 -4 -14 -18
-14 -18 -15 0 -25 15 -9 13 -10 -12 -7 -28 5 -29 4 -11 -9 17 -13 18 -15 3
-15 -9 0 -17 -5 -17 -11 0 -5 5 -7 10 -4 6 3 10 1 10 -4 0 -6 -5 -11 -11 -11
-5 0 -8 -4 -5 -9 4 -5 0 -12 -6 -15 -10 -5 -10 -7 0 -12 6 -3 12 -10 12 -15 0
-6 -5 -7 -12 -3 -8 5 -9 2 -5 -10 5 -11 3 -15 -5 -10 -8 5 -9 0 -5 -15 3 -14
0 -24 -8 -27 -8 -3 -11 -12 -8 -20 3 -8 -1 -14 -8 -14 -8 0 -5 -6 7 -16 10 -8
14 -13 9 -11 -6 3 -19 -2 -30 -10 -13 -10 -14 -14 -4 -10 25 8 19 -24 -7 -35
-22 -10 -22 -12 -6 -24 9 -7 12 -14 6 -14 -6 0 -10 -12 -8 -26 2 -18 -2 -24
-11 -21 -9 4 -11 -1 -8 -14 3 -10 10 -16 16 -12 6 3 7 1 3 -6 -4 -6 -12 -9
-17 -5 -6 3 -9 0 -8 -7 4 -23 -12 -49 -25 -42 -6 4 -5 -1 3 -10 11 -14 11 -20
1 -32 -9 -11 -9 -15 -1 -15 7 0 9 -5 6 -10 -4 -6 -10 -8 -14 -6 -4 3 -6 -8 -5
-24 1 -21 -2 -27 -12 -23 -8 3 -14 0 -14 -6 0 -6 5 -11 10 -11 6 0 10 -5 10
-11 0 -5 -3 -8 -7 -6 -5 3 -15 -2 -23 -11 -13 -14 -13 -15 1 -10 11 4 15 0 14
-15 -1 -11 -10 -24 -21 -28 -10 -4 -13 -8 -5 -8 9 -1 10 -5 4 -13 -6 -7 -9
-21 -8 -30 2 -10 -2 -15 -9 -12 -7 3 -13 -2 -13 -10 0 -8 4 -13 9 -10 4 3 6
-3 5 -13 -7 -32 -19 -53 -28 -47 -5 3 -6 -3 -2 -12 4 -10 2 -15 -3 -11 -5 3
-10 -14 -11 -39 -2 -34 2 -46 17 -54 25 -13 33 -13 24 3 -5 8 -2 8 9 -2 9 -7
17 -9 17 -4 0 15 55 9 62 -7 5 -12 7 -12 7 3 1 9 6 17 12 17 5 0 8 -4 5 -8 -2
-4 4 -8 14 -8 10 0 16 4 14 8 -5 7 8 12 26 10 3 0 7 8 7 19 1 11 -3 17 -9 13
-7 -4 -7 0 0 12 5 11 8 27 7 37 -2 9 1 15 6 11 5 -3 7 -9 5 -13 -3 -4 1 -8 9
-8 8 0 11 5 7 11 -11 18 -12 46 -2 46 5 0 6 7 3 17 -4 11 -3 14 5 9 7 -4 12
-3 12 3 0 5 -6 12 -12 14 -10 4 -10 6 0 6 6 1 12 6 12 12 0 5 -4 8 -9 5 -5 -4
-7 3 -4 14 3 11 10 20 15 20 5 0 6 -5 2 -12 -5 -7 -3 -8 5 -4 7 5 10 14 8 20
-3 7 1 13 9 13 7 0 11 -3 9 -7 -2 -4 2 -7 9 -7 8 0 12 9 10 21 -3 12 -2 15 2
8 3 -6 10 -10 15 -7 5 4 6 -2 2 -12 -6 -15 -4 -16 8 -6 9 7 20 8 28 3 17 -10
43 -2 35 11 -3 5 2 6 10 3 9 -3 13 -11 10 -16 -4 -6 5 -2 20 7 22 15 25 15 20
2 -4 -12 -1 -14 15 -10 11 3 22 12 24 22 3 11 5 9 6 -6 0 -13 7 -23 15 -23 23
0 49 -79 48 -147 0 -18 4 -33 9 -33 6 0 7 5 3 12 -4 7 -3 8 4 4 15 -9 15 -12
-3 -30 -9 -9 -11 -17 -5 -21 5 -3 10 -1 10 4 0 6 5 11 12 11 6 0 8 -3 5 -7 -4
-3 1 -12 11 -20 9 -8 11 -11 3 -7 -10 5 -12 3 -6 -5 5 -9 10 -10 18 -2 7 7 16
7 29 0 13 -7 18 -6 18 2 0 8 4 8 15 -1 8 -7 15 -9 15 -4 0 5 14 9 30 9 17 0
30 -4 30 -8 0 -4 6 -3 13 3 6 6 20 16 30 23 17 12 17 13 -2 34 -14 15 -17 23
-8 26 9 4 9 6 0 6 -7 1 -13 7 -13 15 0 8 -6 16 -12 19 -10 3 -10 8 1 18 12 12
13 12 6 0 -5 -10 -4 -12 4 -7 6 4 9 12 5 17 -3 5 -10 7 -15 4 -12 -8 -12 38 1
53 7 9 7 9 -2 2 -17 -14 -31 -12 -21 3 11 18 13 38 2 31 -5 -3 -7 -10 -4 -15
3 -5 -1 -6 -10 -2 -12 4 -13 8 -5 13 9 5 9 13 2 27 -8 14 -8 23 -1 30 8 8 7
13 -2 18 -8 6 -10 4 -4 -6 5 -8 4 -11 0 -6 -13 11 -13 47 -1 47 6 0 4 4 -4 9
-8 6 -18 7 -22 5 -5 -3 -8 -2 -7 3 1 4 0 10 -1 13 -5 14 -6 49 0 45 4 -2 7 2
7 10 0 8 -5 11 -10 8 -6 -4 -8 3 -5 15 4 12 2 20 -2 17 -5 -3 -11 -1 -14 4 -3
5 2 12 11 15 14 6 13 9 -7 31 -13 14 -19 29 -15 36 6 8 4 10 -4 4 -9 -5 -12 2
-11 26 1 19 1 39 0 44 -1 6 -2 14 -1 18 1 5 -3 6 -9 2 -8 -5 -7 -12 2 -23 12
-15 11 -16 -4 -3 -13 9 -15 18 -8 30 5 10 5 23 0 31 -5 8 -6 18 -3 24 3 5 1 6
-5 2 -8 -5 -12 3 -12 24 0 18 -4 29 -10 25 -6 -4 -7 1 -3 11 4 11 3 15 -4 11
-7 -5 -9 0 -6 13 3 11 0 20 -6 20 -6 0 -11 5 -11 11 0 5 4 8 8 5 5 -3 9 1 9 9
0 8 -4 12 -8 10 -4 -3 -10 2 -13 11 -4 9 -2 13 5 8 8 -5 8 -1 0 13 -6 11 -7
23 -4 27 3 3 1 6 -4 6 -6 0 -14 -6 -16 -12 -4 -10 -6 -10 -6 -1 -1 7 5 18 13
25 12 11 10 18 -12 47 -14 19 -20 31 -14 27 7 -4 12 -2 12 3 0 6 -5 11 -11 11
-8 0 -9 4 0 13 6 8 7 17 3 21 -4 4 -7 13 -7 19 -1 7 -6 11 -12 10 -6 -1 -14 4
-17 13 -4 10 -1 13 7 9 6 -4 5 -1 -3 7 -9 7 -15 22 -13 33 1 11 0 14 -3 8 -9
-21 -26 -15 -19 7 3 11 4 20 1 20 -2 0 -7 -9 -11 -19z m62 -88 c-4 -3 -2 -12
4 -20 7 -8 8 -13 1 -13 -12 0 -23 26 -15 34 4 3 9 6 11 6 3 0 2 -3 -1 -7z m27
-133 c-5 -5 -10 3 -11 18 -1 22 0 24 9 8 6 -10 6 -22 2 -26z m-139 -131 c-3
-4 3 -12 12 -18 14 -8 15 -10 3 -11 -13 0 -13 -1 0 -10 18 -12 2 -12 -25 0
-18 8 -18 9 -2 9 12 1 15 5 10 14 -4 6 -8 17 -8 22 -1 6 -7 9 -14 7 -7 -1 -10
2 -6 8 5 8 11 8 21 -1 7 -6 11 -15 9 -20z m5 -59 c0 -5 6 -9 12 -7 9 1 12 -8
10 -27 -2 -16 0 -26 6 -22 13 8 10 -37 -3 -46 -6 -5 -6 -8 2 -8 7 0 10 -9 8
-21 -3 -16 -1 -18 8 -10 9 7 13 5 13 -9 0 -10 -4 -16 -8 -14 -4 3 -8 -2 -8
-11 0 -9 5 -13 10 -10 6 3 10 -3 10 -15 0 -13 -4 -19 -12 -14 -7 5 -8 3 -4 -5
5 -7 14 -10 21 -7 14 5 15 -11 1 -33 -6 -9 -5 -12 1 -8 6 4 13 -2 16 -12 4
-15 1 -18 -12 -13 -13 5 -14 3 -4 -10 17 -19 4 -32 -15 -15 -11 8 -14 8 -9 0
4 -6 3 -15 -3 -18 -6 -4 -9 -1 -8 6 2 6 -3 14 -11 17 -8 2 -11 0 -8 -5 3 -5 1
-15 -4 -23 -8 -12 -9 -11 -7 5 2 16 -2 19 -22 17 -13 -1 -28 -8 -32 -15 -6 -9
-8 -9 -8 1 0 7 -4 10 -10 7 -6 -3 -7 1 -4 10 5 12 2 14 -12 8 -17 -6 -17 -5
-6 10 8 9 11 21 7 27 -3 5 -1 10 5 10 8 0 7 6 -1 21 -7 13 -7 19 -1 15 6 -3
13 -2 17 4 3 5 0 10 -7 10 -7 1 -2 7 11 14 14 8 19 16 13 20 -6 3 -12 1 -14
-6 -3 -8 -7 -6 -11 5 -3 9 -3 16 1 16 20 -3 32 2 27 11 -4 6 -11 7 -17 4 -5
-4 -3 4 5 17 8 13 18 35 22 48 6 18 4 22 -6 15 -10 -6 -9 0 2 16 10 14 24 24
32 22 9 -1 18 1 21 6 6 10 -37 8 -54 -3 -7 -4 -6 1 2 14 13 22 38 29 38 11z
m213 -65 c4 -8 3 -16 -1 -19 -4 -3 -9 4 -9 15 -2 23 3 25 10 4z m61 -184 c-4
-3 -9 0 -11 7 -3 6 -10 9 -15 6 -7 -4 -8 -2 -4 5 6 9 11 9 22 0 8 -6 12 -15 8
-18z m-289 -81 c-3 -5 -12 -10 -18 -10 -7 0 -6 4 3 10 19 12 23 12 15 0z m-8
-155 c0 -8 -4 -12 -9 -9 -5 3 -6 10 -3 15 9 13 12 11 12 -6z m-356 -188 c-10
-9 -11 -8 -5 6 3 10 9 15 12 12 3 -3 0 -11 -7 -18z"/>
<path d="M536 1487 c3 -10 9 -15 12 -12 3 3 0 11 -7 18 -10 9 -11 8 -5 -6z"/>
<path d="M2270 1824 c0 -11 -3 -15 -8 -9 -4 6 -13 10 -19 9 -7 -1 -17 -2 -23
-3 -5 0 -10 -9 -10 -18 0 -15 -2 -16 -10 -3 -8 13 -14 8 -12 -11 1 -3 -5 -6
-13 -6 -8 0 -11 5 -8 11 5 7 2 7 -8 0 -8 -6 -22 -10 -32 -9 -9 2 -15 -1 -11
-6 3 -5 10 -7 15 -4 5 4 9 1 9 -4 0 -6 -8 -11 -17 -11 -14 0 -15 -2 -4 -9 11
-7 11 -9 0 -14 -11 -4 -10 -6 2 -6 9 -1 16 -8 16 -16 0 -10 -4 -12 -12 -5 -8
7 -12 5 -12 -5 0 -8 3 -15 7 -15 13 0 6 -29 -8 -35 -11 -4 -12 -8 -2 -19 9
-12 6 -14 -23 -11 -19 1 -41 -1 -48 -6 -8 -5 -9 -9 -4 -9 6 0 3 -5 -5 -10 -13
-9 -13 -10 0 -10 13 0 13 -1 0 -10 -12 -8 -12 -10 -1 -10 11 0 11 -3 0 -17 -8
-10 -9 -14 -2 -10 6 4 14 3 18 -3 3 -5 -1 -10 -9 -10 -9 0 -16 -5 -16 -11 0
-5 4 -8 9 -5 4 3 7 -6 5 -19 -1 -14 3 -25 9 -25 8 0 7 -3 -1 -9 -11 -7 -10 -9
3 -14 9 -4 13 -3 10 2 -3 5 -1 12 5 16 5 3 10 1 10 -4 0 -6 9 -11 19 -11 11 0
23 -5 26 -10 5 -8 12 -7 23 2 15 12 16 11 3 -4 -7 -10 -17 -15 -22 -12 -5 3
-9 0 -9 -5 0 -6 5 -11 11 -11 8 0 7 -5 -1 -15 -11 -13 -10 -18 5 -29 14 -10
15 -15 5 -21 -9 -6 -11 -4 -5 6 7 12 5 12 -6 1 -12 -11 -12 -14 0 -21 9 -6 11
-15 6 -27 -14 -33 -15 -54 -4 -54 8 0 7 -5 -1 -15 -11 -13 -10 -18 5 -29 14
-10 15 -15 5 -21 -9 -6 -11 -4 -5 6 7 12 5 12 -6 1 -11 -11 -12 -14 -1 -21 15
-9 15 -20 0 -38 -7 -9 -5 -17 6 -28 19 -20 21 -32 3 -16 -10 8 -14 7 -14 -4 0
-8 4 -15 8 -15 4 0 10 -7 13 -16 5 -13 3 -14 -7 -6 -10 9 -13 5 -12 -18 0 -16
5 -33 9 -37 5 -4 6 -3 2 4 -5 9 -2 11 10 6 11 -4 13 -8 6 -11 -7 -2 -12 -10
-12 -18 0 -9 5 -12 12 -8 7 4 8 3 4 -4 -4 -6 -12 -10 -19 -8 -7 1 -9 1 -4 -1
4 -3 5 -9 1 -14 -3 -5 0 -8 7 -7 6 2 13 -10 16 -27 2 -16 8 -31 14 -33 5 -2 9
-8 9 -13 0 -6 -4 -7 -10 -4 -16 10 -11 -1 7 -16 11 -10 14 -10 9 -1 -4 6 -2
12 3 12 10 0 15 -14 12 -32 -2 -12 14 -9 28 5 8 6 11 7 8 2 -3 -6 3 -17 15
-24 11 -7 17 -8 14 -2 -4 5 2 9 14 8 24 -2 25 -6 5 -21 -13 -9 -10 -11 14 -11
16 -1 27 3 25 7 -3 4 2 8 11 8 10 0 13 -5 9 -12 -4 -7 -3 -8 4 -4 6 4 9 14 6
24 -3 9 2 6 11 -8 9 -14 14 -17 11 -8 -3 10 -1 20 4 23 6 4 10 1 10 -4 0 -6 4
-11 10 -11 5 0 7 7 4 15 -5 11 -2 13 10 9 9 -3 13 -11 10 -18 -3 -6 1 -4 8 5
10 12 19 14 36 8 14 -5 21 -5 17 0 -3 5 -1 12 4 15 14 9 12 77 -2 69 -7 -3 -3
4 8 16 11 12 15 22 10 21 -22 -5 -27 1 -15 15 10 11 9 18 -4 30 -16 16 -23 8
-8 -11 4 -5 -1 -1 -11 9 -13 15 -20 17 -31 8 -11 -9 -15 -9 -19 1 -4 10 -6 10
-6 -1 -1 -11 -4 -11 -18 0 -11 9 -14 10 -9 2 5 -9 2 -11 -8 -7 -9 3 -16 10
-16 16 0 5 -6 6 -12 2 -8 -5 -7 0 2 11 10 13 11 16 2 11 -10 -6 -13 -3 -12 10
4 34 0 45 -12 39 -7 -4 -4 1 6 9 19 15 19 16 2 16 -15 0 -16 3 -7 14 9 10 9
16 1 21 -8 5 -8 11 -1 19 7 9 7 17 -2 26 -10 10 -9 12 5 7 12 -4 15 -2 11 8
-3 8 -10 12 -17 8 -6 -3 -6 -1 2 8 14 15 16 33 4 25 -8 -4 -8 14 -3 57 1 5 7
5 14 2 6 -4 4 0 -6 8 -12 10 -14 16 -6 19 8 3 9 9 4 19 -5 8 -10 24 -11 37 -1
17 3 21 15 17 12 -5 13 -3 4 6 -6 6 -9 18 -6 27 5 11 3 13 -8 7 -11 -7 -12 -6
-2 7 7 8 9 18 5 23 -4 4 4 2 17 -5 15 -8 21 -8 17 -1 -10 16 5 13 25 -5 13
-12 19 -12 25 -3 5 8 3 10 -6 4 -9 -6 -11 -4 -5 5 6 10 11 9 23 -6 14 -18 14
-18 9 6 -5 21 -4 22 6 10 10 -13 15 -12 37 9 14 13 18 21 10 17 -9 -4 -7 -1 3
7 17 14 17 15 0 21 -15 6 -15 8 -3 16 12 8 12 10 1 10 -10 0 -11 3 -2 14 7 9
8 17 2 20 -10 7 -10 24 2 43 8 12 -17 12 -29 0 -4 -4 -12 -7 -18 -7 -6 0 -4 5
4 10 10 7 -6 9 -51 7 -55 -2 -66 0 -61 12 3 9 1 12 -5 8 -12 -8 -12 11 0 30 4
6 3 14 -3 18 -7 4 -6 13 1 27 9 16 8 23 -2 29 -11 7 -11 9 1 9 13 0 13 1 0 10
-10 6 -11 10 -2 10 6 0 12 7 12 16 0 9 -5 12 -12 8 -6 -4 -8 -3 -5 3 4 6 -1
17 -10 24 -14 12 -16 12 -8 -1 8 -13 7 -13 -8 -1 -15 12 -17 11 -17 -5z m-30
-14 c0 -5 -5 -10 -11 -10 -5 0 -7 5 -4 10 3 6 8 10 11 10 2 0 4 -4 4 -10z
m-105 -529 c3 -5 2 -12 -3 -15 -5 -3 -9 1 -9 9 0 17 3 19 12 6z m340 -451 c-3
-5 -12 -10 -18 -10 -7 0 -6 4 3 10 19 12 23 12 15 0z m-174 -43 c-10 -9 -11
-8 -5 6 3 10 9 15 12 12 3 -3 0 -11 -7 -18z"/>
<path d="M1621 1648 c0 -10 -6 -18 -12 -18 -5 0 -7 6 -4 13 4 6 0 4 -8 -5 -8
-10 -17 -15 -21 -11 -4 4 -11 1 -16 -7 -7 -10 -10 -11 -10 -2 0 6 -5 12 -11
12 -5 0 -7 -5 -3 -12 5 -7 2 -9 -9 -5 -11 4 -14 2 -11 -8 3 -8 -2 -24 -11 -37
-12 -15 -15 -17 -12 -5 9 26 0 21 -18 -10 -14 -25 -15 -25 -9 -4 4 15 2 21 -4
17 -6 -3 -14 -1 -18 5 -4 8 -3 9 4 5 7 -4 12 -2 12 3 0 6 -8 11 -17 12 -15 0
-15 2 2 9 19 8 19 9 -3 9 -13 1 -20 5 -17 11 4 6 -6 8 -25 6 -17 -2 -33 1 -36
6 -4 6 -10 5 -14 -3 -7 -10 -12 -10 -26 2 -11 9 -15 9 -10 2 4 -7 2 -14 -3
-14 -6 -1 -15 -2 -21 -3 -11 -1 -12 -18 -3 -26 4 -3 3 2 -2 10 -5 8 -4 12 0 7
15 -13 12 -57 -4 -57 -11 0 -10 -4 5 -15 19 -14 19 -14 -1 -15 l-20 -1 20 -9
c18 -8 18 -9 2 -9 -17 -1 -17 -2 -1 -18 15 -16 15 -17 -2 -24 -18 -7 -18 -8 0
-8 20 -1 20 -1 0 -17 -10 -8 -13 -13 -6 -9 11 5 14 -1 11 -21 0 -4 5 -11 13
-15 11 -7 11 -9 -1 -9 -8 0 -11 -7 -8 -20 4 -14 0 -20 -11 -21 -14 0 -13 -2 2
-8 18 -7 18 -8 2 -14 -16 -6 -16 -8 0 -32 15 -24 15 -25 -2 -26 -18 0 -18 -1
1 -9 11 -5 14 -9 7 -9 -10 -1 -10 -6 -2 -21 6 -11 7 -20 3 -20 -4 0 -1 -5 7
-10 12 -8 12 -10 1 -10 -8 0 -11 -7 -8 -20 4 -14 0 -20 -11 -21 -14 0 -13 -2
3 -9 11 -5 14 -9 7 -9 -10 -1 -10 -6 -2 -21 6 -11 7 -20 3 -20 -4 0 -1 -5 7
-10 12 -8 12 -10 1 -10 -8 0 -11 -7 -8 -19 3 -12 -1 -22 -9 -25 -12 -5 -12
-10 2 -31 9 -14 12 -25 8 -25 -5 0 -2 -5 6 -10 12 -8 12 -10 1 -10 -9 0 -11
-7 -8 -21 4 -14 2 -19 -8 -15 -16 6 -14 -10 8 -51 21 -40 22 -53 1 -27 -14 18
-15 18 -4 -4 9 -18 14 -21 25 -12 10 8 14 7 18 -2 4 -10 6 -10 6 1 1 11 4 11
16 1 12 -10 15 -10 15 1 0 10 3 10 12 1 7 -7 17 -8 30 -1 12 6 18 6 18 0 0 -6
7 -8 15 -5 8 4 12 10 9 15 -3 5 0 9 5 9 6 0 11 -4 11 -10 0 -5 4 -10 9 -10 6
0 6 12 1 30 -5 19 -5 28 1 25 5 -4 9 -2 9 4 0 5 -6 12 -12 14 -10 4 -10 6 0 6
6 1 12 6 12 12 0 5 -4 8 -9 5 -5 -4 -7 3 -4 13 3 13 10 18 21 14 10 -5 13 -3
8 6 -5 7 -16 11 -25 8 -10 -2 -18 1 -18 8 0 8 9 12 21 9 18 -3 19 -1 6 9 -16
13 -24 51 -9 41 5 -3 9 0 9 5 0 6 -6 11 -12 11 -9 0 -9 3 1 9 13 8 13 12 0 27
-9 11 -9 15 -1 10 6 -4 12 -3 12 3 0 5 -8 12 -17 14 -17 4 -17 5 0 6 9 0 17 4
18 9 0 4 2 19 4 34 2 16 -3 34 -11 43 -9 8 -11 15 -5 15 5 0 9 9 8 19 0 11 -5
17 -9 15 -4 -3 -8 0 -8 5 0 6 7 11 16 11 8 0 12 5 9 10 -4 6 -12 7 -18 3 -8
-4 -7 -1 1 9 10 13 10 17 0 21 -7 2 -10 8 -6 12 4 4 15 2 25 -6 15 -12 16 -12
8 1 -15 24 -15 42 1 71 13 26 13 28 -3 22 -14 -5 -13 -3 3 13 12 13 22 16 26
10 5 -7 8 -6 8 3 0 8 3 12 6 8 3 -3 15 3 27 13 23 22 41 17 33 -9 -5 -14 -4
-14 7 -1 15 18 37 24 37 10 0 -5 5 -10 11 -10 6 0 9 6 6 13 -2 6 5 20 16 30
19 16 13 23 -16 18 -5 -1 -6 3 -2 9 3 5 14 10 23 10 13 0 13 2 -4 16 -17 14
-17 15 -1 10 10 -3 16 -2 12 3 -3 5 1 12 7 15 7 3 2 4 -12 1 -14 -3 -19 -2
-12 1 6 3 9 11 6 16 -4 6 -2 8 4 4 6 -3 13 -2 17 4 3 5 2 10 -3 10 -6 0 -13 7
-16 16 -5 13 -4 14 7 6 10 -9 14 -8 14 2 0 15 -14 16 -36 2 -9 -6 -12 -5 -8 0
3 6 2 16 -4 24 -6 10 -9 11 -9 3 0 -19 -18 -16 -23 5 -4 16 -5 16 -6 0z m-131
-489 c0 -5 -4 -9 -8 -9 -5 0 -9 7 -9 15 0 8 4 12 9 9 4 -3 8 -9 8 -15z m-5
-28 c3 -5 2 -12 -3 -15 -5 -3 -9 1 -9 9 0 17 3 19 12 6z"/>
<path d="M1580 1435 c-7 -9 -11 -17 -9 -20 3 -2 10 5 17 15 14 24 10 26 -8 5z"/>
<path d="M1279 1408 c-5 -18 -6 -38 -1 -34 7 8 12 36 6 36 -2 0 -4 -1 -5 -2z"/>
<path d="M827 1199 c7 -7 15 -10 18 -7 3 3 -2 9 -12 12 -14 6 -15 5 -6 -5z"/>
<path d="M650 1020 c0 -5 5 -10 11 -10 5 0 7 5 4 10 -3 6 -8 10 -11 10 -2 0
-4 -4 -4 -10z"/>
<path d="M1490 1000 c0 -5 5 -10 11 -10 5 0 7 5 4 10 -3 6 -8 10 -11 10 -2 0
-4 -4 -4 -10z"/>
<path d="M918 803 c7 -3 16 -2 19 1 4 3 -2 6 -13 5 -11 0 -14 -3 -6 -6z"/>
</g>
</svg>
